<svg width="1490" height="229" viewBox="0 0 1490 229" fill="none" xmlns="http://www.w3.org/2000/svg">
<path d="M59.6 181H125.3V226H0.800001V14.5H59.6V181ZM308.963 139.9C308.963 144.5 308.663 149.1 308.063 153.7H196.763C197.363 162.9 199.863 169.8 204.263 174.4C208.863 178.8 214.663 181 221.663 181C231.463 181 238.463 176.6 242.663 167.8H305.363C302.763 179.4 297.663 189.8 290.063 199C282.663 208 273.263 215.1 261.863 220.3C250.463 225.5 237.863 228.1 224.063 228.1C207.463 228.1 192.663 224.6 179.663 217.6C166.863 210.6 156.763 200.6 149.363 187.6C142.163 174.6 138.563 159.3 138.563 141.7C138.563 124.1 142.163 108.9 149.363 96.1C156.563 83.1 166.563 73.1 179.363 66.1C192.363 59.1 207.263 55.6 224.063 55.6C240.663 55.6 255.363 59 268.163 65.8C280.963 72.6 290.963 82.4 298.163 95.2C305.363 107.8 308.963 122.7 308.963 139.9ZM248.963 125.2C248.963 118 246.563 112.4 241.763 108.4C236.963 104.2 230.963 102.1 223.763 102.1C216.563 102.1 210.663 104.1 206.063 108.1C201.463 111.9 198.463 117.6 197.063 125.2H248.963ZM323.427 141.7C323.427 124.3 326.527 109.1 332.727 96.1C339.127 83.1 347.727 73.1 358.527 66.1C369.527 59.1 381.727 55.6 395.127 55.6C406.727 55.6 416.727 57.9 425.127 62.5C433.527 67.1 440.027 73.3 444.627 81.1V57.7H503.427V226H444.627V202.6C440.027 210.4 433.427 216.6 424.827 221.2C416.427 225.8 406.527 228.1 395.127 228.1C381.727 228.1 369.527 224.6 358.527 217.6C347.727 210.6 339.127 200.6 332.727 187.6C326.527 174.4 323.427 159.1 323.427 141.7ZM444.627 141.7C444.627 130.9 441.627 122.4 435.627 116.2C429.827 110 422.627 106.9 414.027 106.9C405.227 106.9 397.927 110 392.127 116.2C386.327 122.2 383.427 130.7 383.427 141.7C383.427 152.5 386.327 161.1 392.127 167.5C397.927 173.7 405.227 176.8 414.027 176.8C422.627 176.8 429.827 173.7 435.627 167.5C441.627 161.3 444.627 152.7 444.627 141.7ZM595.733 87.4C602.333 77.8 610.333 70.2 619.733 64.6C629.133 59 639.233 56.2 650.033 56.2V118.9H633.533C620.733 118.9 611.233 121.4 605.033 126.4C598.833 131.4 595.733 140.1 595.733 152.5V226H536.933V57.7H595.733V87.4ZM781.213 56.2C800.613 56.2 816.013 62.7 827.413 75.7C838.813 88.5 844.513 105.9 844.513 127.9V226H785.713V135.7C785.713 126.1 783.213 118.6 778.213 113.2C773.213 107.6 766.513 104.8 758.113 104.8C749.313 104.8 742.413 107.6 737.413 113.2C732.413 118.6 729.913 126.1 729.913 135.7V226H671.113V57.7H729.913V81.7C735.113 74.1 742.113 68 750.913 63.4C759.713 58.6 769.813 56.2 781.213 56.2ZM1138.38 16.3L1078.98 226H1055.58L1002.78 47.2L948.777 226L925.977 226.3L867.777 16.3H890.277L938.277 200.2L991.977 16.3H1015.38L1067.58 200.2L1115.88 16.3H1138.38ZM1181 31.3C1176.8 31.3 1173.2 29.8 1170.2 26.8C1167.2 23.8 1165.7 20.1 1165.7 15.7C1165.7 11.3 1167.2 7.69999 1170.2 4.89999C1173.2 1.89999 1176.8 0.39999 1181 0.39999C1185.2 0.39999 1188.8 1.89999 1191.8 4.89999C1194.8 7.69999 1196.3 11.3 1196.3 15.7C1196.3 20.1 1194.8 23.8 1191.8 26.8C1188.8 29.8 1185.2 31.3 1181 31.3ZM1191.5 62.2V226H1170.5V62.2H1191.5ZM1266.35 79.9V181.6C1266.35 191.6 1268.25 198.5 1272.05 202.3C1275.85 206.1 1282.55 208 1292.15 208H1311.35V226H1288.85C1274.05 226 1263.05 222.6 1255.85 215.8C1248.65 208.8 1245.05 197.4 1245.05 181.6V79.9H1222.25V62.2H1245.05V21.1H1266.35V62.2H1311.35V79.9H1266.35ZM1423.99 59.2C1436.39 59.2 1447.49 61.8 1457.29 67C1467.29 72.2 1475.09 80.2 1480.69 91C1486.49 101.6 1489.39 114.6 1489.39 130V226H1468.69V132.4C1468.69 114.6 1464.19 101 1455.19 91.6C1446.39 82.2 1434.29 77.5 1418.89 77.5C1403.09 77.5 1390.49 82.5 1381.09 92.5C1371.69 102.5 1366.99 117.2 1366.99 136.6V226H1345.99V4H1366.99V90.1C1372.19 80.3 1379.79 72.7 1389.79 67.3C1399.99 61.9 1411.39 59.2 1423.99 59.2Z" fill="#537AA5"/>
</svg>
